<svg width="23" height="22" viewBox="0 0 23 22" fill="none" xmlns="http://www.w3.org/2000/svg">
<path d="M7.4604 12.8752C8.81552 14.2154 10.1582 15.5815 11.5001 16.9375L15.7794 12.7502L18.2467 15.2281C18.1596 15.3114 18.0518 15.3956 17.9688 15.4798C16.0042 17.476 14.0187 19.583 11.9935 21.5041C11.9081 21.585 11.6759 21.835 11.6062 21.8783C11.5689 21.9017 11.5457 21.9125 11.4992 21.905L4.85132 15.2273C4.85215 15.1281 4.92596 15.1473 4.96162 15.1139C5.6989 14.418 6.4652 13.6128 7.18008 12.8844C7.20247 12.8619 7.19584 12.8244 7.21906 12.8019C7.35258 12.6752 7.38078 12.7952 7.4604 12.8744V12.8752Z" fill="white"/>
<path d="M12.0177 0.554912L17.4017 5.96578C17.6356 6.22082 17.9913 6.48086 18.2095 6.7359C18.2302 6.76007 18.2418 6.79007 18.2476 6.82175L15.8094 9.24463L15.7256 9.25213L11.5541 5.0673C11.292 5.304 11.0299 5.55904 10.7762 5.81075C9.82078 6.7584 8.87285 7.73022 7.91746 8.66204C7.82872 8.74872 7.40162 9.2538 7.32532 9.25297L7.28468 9.2388L4.85889 6.83341L4.87216 6.7634L11.4861 0.101507C11.5317 0.08067 11.5682 0.0990063 11.6072 0.122343C11.7175 0.190688 11.9132 0.451563 12.0185 0.556579L12.0177 0.554912Z" fill="white"/>
<path d="M11.6112 8.53909L14.0237 10.9861L13.964 11.117C13.2591 11.7696 12.6089 12.4747 11.9239 13.129C11.8725 13.1782 11.6071 13.479 11.5847 13.489C11.5639 13.4982 11.5457 13.504 11.5225 13.4999L9.04858 11.0145L11.4876 8.53909H11.612H11.6112Z" fill="white"/>
<path d="M3.16293 8.53823L5.5738 10.9861C5.57048 11.097 5.24704 11.3428 5.14918 11.4462C4.68061 11.9421 4.17306 12.4205 3.68541 12.9164C3.57677 13.0273 3.4192 13.2632 3.27738 13.3673C3.04434 13.5374 3.05097 13.3798 2.89091 13.2415C2.35765 12.7789 1.87913 12.218 1.37241 11.7154C1.18747 11.532 0.918763 11.3528 0.758702 11.1386C0.733822 11.1053 0.678257 11.0203 0.680745 10.9878L3.09161 8.53906H3.16376L3.16293 8.53823Z" fill="white"/>
<path d="M19.9851 8.53106L22.4051 10.9848L20.034 13.4335L19.9436 13.4443L17.4988 11.0131L19.9851 8.53106Z" fill="white"/>
</svg>
