<svg width="343" height="319" viewBox="0 0 343 319" fill="none" xmlns="http://www.w3.org/2000/svg">
<path d="M227.711 75.3116V181.236H191.592V0.127319H224.765L267.032 73.3903L309.299 0.127319H342.473V181.236H306.353V75.3116L283.555 115.017H250.51L227.711 75.3116Z" fill="#359FDB"/>
<path d="M125.764 120.397V0H161.884V128.723L128.966 181.236H87.3397L81.1918 171.502L75.0439 181.236H33.4171L0.5 128.723V0H36.6192V120.397L54.1665 148.575L63.2603 134.358V0H99.2514V134.486L108.217 148.447L125.764 120.397Z" fill="#32D996"/>
<path d="M293.31 256.826V318.057H271.699V209.236H293.31V245.944L298.521 237.668H322.584L339.826 265.179V318.057H318.216V270.16L309.862 256.826H293.31Z" fill="white"/>
<path d="M194.454 318.057L182.423 298.898H230.702L231.928 296.906V287.786L230.702 285.87H195.527L185.335 269.624V253.837L195.451 237.667H245.263V256.903H208.172L206.946 258.818V264.643L208.249 266.635H243.424L253.616 282.881V301.887L243.424 318.057H194.454Z" fill="white"/>
<path d="M142.806 298.821V281.809H120.429L117.747 286.1V294.53L120.429 298.821H142.806ZM142.806 309.78L137.672 317.98H107.708L96.1362 299.511V281.119L107.708 262.65H138.055L134.453 256.826H104.413V237.667H147.175L164.494 265.256V318.057H142.806V309.78Z" fill="white"/>
<path d="M0.5 209.466H22.1108V248.473H56.9793V209.466H78.5901V318.057H56.9793V267.631H22.1108V318.057H0.5V209.466Z" fill="white"/>
</svg>
