<svg width="162" height="54" viewBox="0 0 162 54" fill="none" xmlns="http://www.w3.org/2000/svg">
<path d="M37.7303 13.432V31.0215H31.7324V0.947098H37.2411L44.2599 13.113L51.2786 0.947098H56.7873V31.0215H50.7895V13.432L47.0036 20.0254H41.5162L37.7303 13.432Z" fill="#359FDB"/>
<path d="M20.8011 20.9187V0.925831H26.7989V22.3012L21.3328 31.0215H14.4204L13.3995 29.405L12.3786 31.0215H5.46613L0 22.3012V0.925831H5.99786V20.9187L8.91171 25.5979L10.4218 23.237V0.925831H16.3984V23.2583L17.8872 25.5766L20.8011 20.9187Z" fill="#32D996"/>
<path d="M141.491 13.8799V30.547H135.608V0.925827H141.491V10.9178L142.909 8.66488H149.459L154.153 16.1536V30.547H148.27V17.5095L145.997 13.8799H141.491Z" fill="white"/>
<path d="M114.582 30.547L111.307 25.332H124.449L124.783 24.7896V22.3073L124.449 21.7858H114.874L112.1 17.3635V13.0663L114.854 8.66488H128.413V13.9007H118.316L117.983 14.4222V16.0076L118.337 16.55H127.912L130.686 20.9723V26.1455L127.912 30.547H114.582Z" fill="white"/>
<path d="M100.524 25.3111V20.6802H94.4324L93.7023 21.8484V24.143L94.4324 25.3111H100.524ZM100.524 28.2941L99.1259 30.5261H90.9697L87.8198 25.4989V20.4925L90.9697 15.4652H99.2302L98.2498 13.8799H90.0727V8.66488H101.713L106.427 16.1745V30.547H100.524V28.2941Z" fill="white"/>
<path d="M61.7874 0.988403H67.6699V11.6061H77.1612V0.988403H83.0437V30.547H77.1612V16.8211H67.6699V30.547H61.7874V0.988403Z" fill="white"/>
<path d="M153.16 43.6923L155 46.8712V53.0742H153.525V47.272L152.313 45.1679H149.471L150.327 43.6923H153.16ZM149.471 40.0215V53.0742H147.996V40.0215H149.471Z" fill="white"/>
<path d="M136.34 53.0741L135.484 51.5985H140.64L141.013 50.9609V49.5491L140.64 48.9115H136.459L135.466 47.19V45.4047L136.459 43.6922H141.496V45.1678H137.306L136.941 45.8054V46.7983L137.315 47.4359H141.496L142.489 49.1483V51.3617L141.496 53.0741H136.34Z" fill="white"/>
<path d="M129.977 46.8711V53.0741H128.492V48.3923H124.958L124.42 49.3214V50.6603L124.958 51.5894H128.483L127.645 53.065H124.102L122.945 51.0611V48.9206L124.102 46.9167H128.292L127.281 45.1678H123.929V43.6922H128.137L129.977 46.8711Z" fill="white"/>
<path d="M115.662 43.6923L117.502 46.8712V53.0742H116.026V47.272L114.815 45.1679H111.973L112.829 43.6923H115.662ZM111.973 40.0215V53.0742H110.497V40.0215H111.973Z" fill="white"/>
<path d="M92.5056 43.6922V53.0741H91.03V43.6922H92.5056ZM93.3618 43.6922H97.0508V45.1678H92.5056L93.3618 43.6922Z" fill="white"/>
<path d="M78.6821 49.8952V46.8711L80.5221 43.6922H83.8741L85.714 46.8711V49.0663H80.1577V49.4944L81.3692 51.5985H84.7303V53.0741H80.5221L78.6821 49.8952ZM83.0178 45.1678H81.3692L80.1577 47.2719V47.5907H84.2293V47.2719L83.0178 45.1678Z" fill="white"/>
<path d="M67.6826 43.6922V53.0741H66.207V43.6922H67.6826ZM71.3716 43.6922L73.2116 46.8711V53.0741H71.736V47.2719L70.5245 45.1678H67.6826L68.5388 43.6922H71.3716Z" fill="white"/>
<path d="M60.7637 43.7286V53.0741H59.2881V43.7286H60.7637ZM60.7637 40.067V42.253H59.2881V40.067H60.7637Z" fill="white"/>
<path d="M45.0003 43.6922V53.0741H43.5247V43.6922H45.0003ZM47.6327 43.6922L49.4726 46.8711V53.0741H47.997V47.2719L46.7856 45.1678H45.0003L45.8565 43.6922H47.6327ZM51.8864 43.6922L53.7263 46.8711V53.0741H52.2507V47.2719L51.0302 45.1678H48.4889L49.3451 43.6922H51.8864Z" fill="white"/>
<path d="M32.9623 53.0742L31.1223 49.8862V46.8712L32.9623 43.6832H35.8042L36.6513 45.1679H33.8185L32.5979 47.2629V49.4945L33.8094 51.5895H36.6786V40.0215H38.1542V53.0742H32.9623Z" fill="white"/>
<path d="M24.5132 40.067V49.5126L26.5718 53.0741H24.8684L23.0376 49.9043V40.067H24.5132Z" fill="white"/>
<path d="M17.5486 43.7286V53.0741H16.073V43.7286H17.5486ZM17.5486 40.067V42.253H16.073V40.067H17.5486Z" fill="white"/>
<path d="M8.48926 49.4489L9.30904 43.6922H10.7937L9.91021 49.9408L8.09759 53.0741H6.51269L5.40143 51.1522L4.29017 53.0741H2.70527L0.883539 49.9225L0 43.6922H1.49382L2.30449 49.4307L3.49772 51.4983L4.6363 49.5218V43.6922H6.15745V49.5127L7.30514 51.4983L8.48926 49.4489Z" fill="white"/>
</svg>
