<svg width="21" height="22" viewBox="0 0 21 22" fill="none" xmlns="http://www.w3.org/2000/svg">
<path d="M12.6018 0.64299C16.7969 1.48387 20.1182 4.92394 20.8314 9.21584C20.9981 10.2194 21.0808 11.5614 20.8045 12.5417C19.8561 15.9087 15.4129 16.1151 14.7158 12.4973C14.537 11.5689 14.7051 10.5763 14.6385 9.64106C14.6359 9.60688 14.656 9.57543 14.6049 9.585L11.7475 14.188C10.5395 15.8649 8.8678 15.3262 8.75084 13.237L8.74076 9.63012L4.32851 16.7051C4.3191 16.7215 4.32179 16.7338 4.32985 16.7502C4.34061 16.7728 4.54966 16.9963 4.58798 17.036C7.58258 20.1623 12.5151 20.4515 15.8801 17.7511C16.3136 17.4031 16.6087 16.9266 17.2392 17.0756C17.8698 17.2247 18.1386 17.9022 17.8509 18.458C17.6567 18.8333 16.5872 19.6044 16.2027 19.854C15.2953 20.4433 13.6128 21.2294 12.5447 21.3231C11.3294 21.4298 9.96952 21.2431 8.73874 21.3245C2.89406 20.2416 -0.880957 14.2939 0.589121 8.39615C1.48717 4.792 4.26532 1.87012 7.78961 0.85902C8.02488 0.79134 8.41004 0.671019 8.63993 0.64299H12.6018ZM16.3526 4.63408C12.6879 1.23707 7.0092 1.71699 3.95343 5.67321C2.03836 8.15278 1.61152 11.493 2.83961 14.3999C2.89137 14.5223 3.05606 14.9181 3.12395 14.9981C3.1542 15.0343 3.15285 15.0131 3.17907 14.9871C3.2436 14.9215 3.374 14.6836 3.43517 14.5872C5.02759 12.0735 6.55211 9.51459 8.15192 7.00563C9.14945 5.66296 10.5375 6.2673 10.6115 7.8424V12.405L10.674 12.3674C11.4315 11.1827 12.1172 9.94528 12.8841 8.76737C13.4441 7.90735 14.332 6.71166 15.505 7.21414C17.2016 7.94153 16.1026 11.1095 16.6652 12.5185C17.0772 13.5501 18.2569 13.3888 18.7759 12.5493C19.1812 11.893 19.1308 10.9557 19.071 10.2098C18.9022 8.10355 17.8798 6.04853 16.3533 4.63408H16.3526Z" fill="white"/>
</svg>
