<svg width="841" height="349" viewBox="0 0 841 349" fill="none" xmlns="http://www.w3.org/2000/svg">
<path d="M414.847 80.8155C414.028 80.8279 413.152 81.2749 412.457 82.0386C411.569 83.0072 411.55 84.249 411.631 84.3359C411.792 84.5159 412.55 84.4787 415.282 83.3735H415.251C415.251 83.3735 415.201 83.3425 415.195 83.3176C415.325 82.8209 415.667 82.4298 415.841 81.9579C415.841 81.9455 416.058 80.89 414.853 80.8155H414.847ZM587.111 70.099C586.075 69.3726 585.162 68.7269 584.317 68.1308C585.28 69.0063 586.317 69.7886 587.465 70.366C587.347 70.2791 587.236 70.1859 587.111 70.0928V70.099ZM575.389 60.1214C575.737 60.7671 576.103 61.6985 576.538 62.2883C576.643 62.4249 577.506 63.3128 584.317 68.137C581.343 65.4548 578.953 61.8475 575.389 60.1214ZM417.144 110.537C416.232 110.761 415.642 111.891 415.623 111.916C415.511 112.152 415.375 112.412 416.014 112.81C416.722 113.25 417.672 113.052 417.896 112.077C418.007 111.555 417.983 110.494 417.144 110.531V110.537ZM417.548 112.996V113.021C417.511 113.139 417.492 113.238 417.629 113.157C417.66 113.139 417.672 113.114 417.672 113.114C417.685 113.077 417.641 113.046 417.548 112.996ZM318.654 315.652L339.627 255.886L358.353 258.401C358.353 258.401 356.95 254.024 356 252.316C356.248 252.353 356.273 252.353 356.279 252.353L379.283 259.121L390.229 288.272L391.968 251.192L394.445 246.492L412.854 230.07L426.451 197.92L438.379 192.966L457.198 171.421L454.149 179.89L470.348 165.895L457.278 158.184L456.626 151.18L440.539 158.463L482.418 132.293L471.149 119.59L454.037 95.0151L447.53 102.739L432.505 84.429L423.21 91.9852L415.226 133.752L412.382 134.894L385.405 104.782L412.053 66.9573C412.053 66.9573 413.872 68.3854 414.655 69.0001C413.525 70.7758 411.656 72.9551 409.992 74.2217C409.998 75.1654 410.017 76.4445 410.023 77.3944C415.182 78.5989 415.425 78.5493 419.33 77.798C419.038 75.8857 417.784 73.4332 416.499 71.9927C418.194 66.2371 422.999 61.4874 422.161 54.8998C421.335 54.3348 420.249 53.5835 419.429 53.0185H419.417C417.089 55.651 414.984 58.4761 412.711 61.1583C409.588 54.0119 409.216 45.1954 409.216 45.1954L408.247 44.2268C408.247 44.2268 403.677 54.0243 400.058 58.1222C400.536 56.2533 400.896 53.6642 400.977 51.7022C394.006 53.0392 386.767 54.2127 379.258 55.2226C376.284 54.815 373.319 54.0459 370.417 53.2793C371.776 51.8885 373.894 47.8031 373.894 47.8031L349.598 41.3583L348.251 28.5432L314.09 35.7331C314.09 35.7331 315.493 34.1126 316.089 33.411L302.951 41.7743L273.503 57.1598C273.503 57.1598 274.856 58.9417 275.446 59.693C275.289 59.8793 267.311 62.725 251.511 68.2302C251.983 69.1367 253.082 71.2414 253.082 71.2414L287.876 58.8424C287.38 59.6247 286.25 61.4377 286.25 61.4377L297.705 60.1711C297.339 61.0838 296.469 63.232 296.469 63.232L301.592 78.2016L292.154 89.75L288.261 127.009L282.263 129.449L254.113 195.567L268.61 284.621L267.468 227.45L270.169 228.989L273.478 260.884L299.344 328.48L318.654 315.652ZM470.882 126.804C470.987 126.873 471.025 127.158 471.043 127.276C471.062 127.475 471.068 127.792 471 127.996C470.689 127.816 470.596 127.525 470.559 127.295C470.553 127.282 470.553 127.276 470.553 127.264C470.509 126.91 470.783 126.717 470.882 126.804ZM405.422 66.8208C405.757 66.5351 406.956 67.6217 406.856 68.5841C406.856 68.6399 406.838 68.7207 406.831 68.7641C406.807 68.8324 406.782 68.8945 406.757 68.9504H406.689C405.41 68.7765 405.081 68.3109 405.025 68.2177C404.634 67.5472 405.41 66.8208 405.422 66.8145V66.8208ZM280.637 49.0573C280.246 48.7344 279.83 48.3867 279.414 48.0204C277.557 49.6098 276.8 50.3301 277.178 50.3549C277.476 50.3735 278.47 49.9824 280.252 49.2559C280.376 49.2063 280.556 49.1318 280.674 49.0945C280.668 49.0945 280.649 49.0697 280.637 49.0573ZM412.531 25.6872C411.134 25.3892 406.08 29.1765 406.08 29.1765C406.08 29.1765 404.422 30.3935 404.1 30.499C403.982 29.6112 405.068 29.3504 405.099 28.537C404.958 28.5039 404.768 28.5308 404.528 28.6177C404.454 28.655 404.416 28.6736 404.416 28.6736C403.833 28.6985 403.466 29.3318 402.845 29.2635C403.094 28.5619 404.255 28.357 403.975 27.3511C403.644 27.3511 403.365 27.2849 403.137 27.1525C403.112 26.7054 405.385 24.2219 405.385 24.2219C405.385 24.2219 406.875 22.7938 406.949 22.2785L405.925 20.4221L392.253 26.1342C392.253 26.1342 389.581 27.6467 390.229 27.0655C390.279 27.0207 390.328 26.9786 390.359 26.9538C386.665 28.9592 385.877 31.2068 385.877 31.2068L386.814 31.2379C386.814 31.2379 386.814 31.2379 386.827 31.2379C386.833 31.2379 386.833 31.2317 386.833 31.2317C387.05 31.1696 387.323 31.1013 387.69 31.0019C390.204 30.232 392.632 29.1828 395.159 28.4563C394.414 29.7229 391.744 29.4125 392.092 31.3683C391.16 32.6721 389.279 32.5107 388.335 33.8083C389.142 34.9694 391.57 36.2608 391.57 36.2608C391.57 36.2608 390.285 35.2923 389.409 35.4226C387.454 35.7269 385.554 36.6706 384.033 37.4281C384.182 38.1732 384.902 38.6326 385.02 39.4087C385.144 40.2221 384.61 41.3024 384.61 41.3024L384.635 43.6307L389.186 43.1961L394.079 42.6497L397.009 44.413L400.014 42.2337C400.014 42.2337 401.479 41.3397 403.398 40.7188C403.504 40.6877 403.758 40.5884 403.758 40.5884L409.29 29.3628L412.544 25.6934L412.531 25.6872ZM386.833 31.2317C386.833 31.2317 386.833 31.2441 386.827 31.2379C386.827 31.2379 386.835 31.2379 386.851 31.2379C386.851 31.2379 386.839 31.2379 386.839 31.2255L386.833 31.2317ZM661.456 141.855C661.382 141.755 661.307 141.65 661.233 141.526L661.127 141.37C661.071 141.302 661.04 141.234 660.984 141.172C660.935 141.085 660.872 140.992 660.817 140.905C660.742 140.824 660.692 140.731 660.624 140.644C660.519 140.507 660.432 140.383 660.363 140.271C660.345 140.253 660.326 140.228 660.307 140.203C660.258 140.141 660.214 140.079 660.165 140.004C660.14 139.992 660.14 139.973 660.14 139.967C660.121 139.942 660.103 139.924 660.096 139.905V139.886C660.096 139.886 660.065 139.886 660.065 139.868C660.065 139.855 660.065 139.855 660.065 139.849C660.034 139.843 660.034 139.818 660.034 139.806C660.034 139.806 660.022 139.806 660.022 139.793V139.781C659.823 139.514 659.631 139.241 659.457 139.011C658.24 137.372 656.713 135.534 656.346 136.08C656.054 137.167 658.817 143.55 659.978 143.736C659.978 143.705 659.978 143.674 659.978 143.63C660.208 144.171 660.456 144.704 660.885 145.127C662.841 147.113 665.2 149.349 665.337 148.666C665.405 148.337 664.952 147.014 661.462 141.855H661.456ZM535.882 63.735C532.312 60.0407 525.694 57.0977 525.433 58.6313C525.433 58.5257 525.414 58.4264 525.402 58.3271C525.427 58.681 525.427 58.7368 525.396 59.2335C524.402 62.9899 522.204 61.8537 519.162 60.2766C517.597 59.4633 516.803 59.0907 516.504 59.1901C516.262 59.6371 516.809 62.4125 520.075 64.7408C521.67 65.8832 522.788 67.5906 524.619 68.4288C526.879 69.4533 528.152 71.7319 530.313 72.893C530.356 72.9054 536.46 73.9982 537.081 73.8429C539.235 73.2904 539.347 67.3237 535.888 63.7474L535.882 63.735ZM429.904 337.973L428.389 339.83L428.482 343.207L421.758 346.082L436.516 348.528L449.685 348.28L449.896 347.982L429.91 337.973H429.904ZM422.546 334.987L387.541 316.602L374.974 324.984L420.497 337.955C421.279 337.118 423.123 335.45 423.123 335.45L422.546 334.987ZM574.023 84.8202C573.949 84.7022 573.856 84.5159 573.713 84.2676C573.862 84.5594 573.98 84.8699 573.98 84.8699L574.029 84.8512C574.029 84.8326 574.023 84.8264 574.023 84.8264V84.8202ZM573.663 84.1434C573.682 84.1869 573.707 84.2303 573.725 84.2614C573.707 84.2179 573.694 84.1869 573.669 84.1434H573.663ZM599.858 89.5389C595.829 85.3169 586.782 79.6358 586.782 79.6358L571.26 71.5519L562.537 64.1013L557.65 63.0023L576.109 78.1084C578.934 79.7413 584.591 82.9948 584.591 82.9948L589.427 90.9111L595.425 95.4187L598.592 100.578L600.591 100.094C600.591 100.094 601.28 91.0352 599.864 89.5451C598.449 88.055 599.858 89.5389 599.858 89.5389ZM587.223 92.3577L580.244 83.5784C580.244 83.5784 572.589 77.9346 572.254 78.2264C572.254 78.2264 573.694 84.3359 574.464 85.4659C574.868 86.0619 575.569 86.6021 576.469 87.2789C577.562 88.1171 580.052 90.7062 580.052 90.7062L583.156 95.2262C583.156 95.2262 583.858 95.9216 584.144 96.1575C584.168 96.1948 584.212 96.2072 584.243 96.2383C584.243 96.2507 584.243 96.2507 584.249 96.2507C584.317 96.2941 584.367 96.3376 584.442 96.3811C584.504 96.4369 584.572 96.4928 584.647 96.5238C584.715 96.5673 584.858 96.6666 584.858 96.6666L587.217 92.3639L587.223 92.3577ZM699.485 161.158C702.441 166.74 705.762 173.253 709.804 181.237C706.601 174.408 703.155 167.721 699.485 161.158ZM684.957 142.656C684.94 142.246 684.605 141.018 683.951 138.974C684.156 138.694 684.435 138.303 684.64 138.018C684.081 136.844 682.839 134.572 682.839 134.572L652.095 95.2262L617.726 66.0718L584.858 42.837L556.502 27.4443C556.502 27.4443 521.211 14.8962 502.162 11.6676L502.249 11.7049C505.925 13.5923 509.88 14.772 513.673 16.3801C509.791 15.5399 507.208 15.1197 505.925 15.1197C509.221 16.2622 512.146 17.2804 514.791 18.1807C510.358 17.2804 503.379 16.467 491.526 16.1442C493.004 17.982 512.09 26.6123 512.264 26.6806L512.965 26.842C512.245 26.2832 511.227 25.6375 510.438 25.1905C528.481 32.5976 539.216 41.1844 539.216 41.1844L563.069 56.7829L569.273 59.3267L566.889 55.1171L588.055 65.4921L529.779 28.8164C529.779 28.8164 534.605 30.1907 541.091 33.6469C549.92 38.3408 565.635 44.9097 565.635 44.9097L561.904 40.5884L571.8 46.4185C571.8 46.4185 575.041 49.169 581.176 52.6087C580.816 52.6956 579.984 52.9129 579.984 52.9129L595.121 65.0947L596.481 70.2853C596.481 70.2853 594.829 70.3846 594.127 70.2853L593.569 71.3408C593.569 71.3408 589.173 71.229 587.465 70.3598C593.221 74.5942 599.821 86.776 599.821 86.776L610.227 106.079L606.713 106.675L611.816 112.164L629.344 126.78L632.728 137.962L624.178 142.159L646.896 174.594C648.579 173.315 650.15 174.817 650.15 174.817L657.7 166.783L640.737 128.853C640.737 128.853 643.37 128.853 644.605 128.332C644.539 127.479 643.918 125.149 642.743 121.341C643.072 121.123 643.885 120.651 643.885 120.651L672.21 146.822L678.077 155.21L666.144 134.497L668.888 134.845L639.148 109.227L649.939 114.287L650.137 113.033C651.056 112.892 657.369 117.913 669.074 128.096C668.348 125.966 667.112 124.066 666.398 121.93C674.221 127.369 678.214 136.242 684.957 142.662V142.656ZM521.031 21.937C521.36 21.7756 521.794 21.5831 522.111 21.4279C522.037 21.192 521.962 20.9188 521.863 20.6456C537.621 26.097 537.701 26.1404 538.105 26.3018C537.298 26.3225 531.604 24.8676 521.025 21.937H521.031ZM651.019 129.064C650.274 128.114 649.945 127.99 649.697 127.891C649.852 128.052 650.007 128.201 650.15 128.35C649.628 127.866 649.125 127.357 648.61 126.86C648.66 126.953 648.728 127.078 648.778 127.183C650.144 129.762 651.803 131.937 653.757 133.709C653.527 133.175 652.248 130.641 651.013 129.052L651.019 129.064ZM502.839 93.8975C502.839 93.5933 502.783 93.2021 502.77 92.8917C502.752 92.8048 494.507 68.4723 494.507 68.4723L496.164 64.1758L498.244 61.7605L496.524 52.677L498.12 44.6614C498.12 44.6614 479.22 29.5304 479.078 29.5118C478.978 29.5925 478.848 29.7105 478.748 29.7912C478.244 29.6588 477.734 29.3732 477.221 28.9344C477.327 28.8537 477.463 28.7543 477.563 28.6674C477.736 28.7171 477.972 28.7854 478.134 28.8351C478.215 28.7295 478.395 28.4812 478.395 28.4812C478.395 28.4812 438.745 8.90467 438.422 8.79291L438.372 8.7805H438.354L438.366 8.855C439.031 11.4751 440.111 16.7899 440.111 16.7899L441.079 22.055L443.333 21.0864L445.897 23.1602L448.76 26.2398L455.745 37.6702L459.576 40.1103L461.941 42.2648L458.843 41.6253L458.917 42.7925L466.387 48.4364C466.387 48.4364 465.818 50.8061 464.344 54.6638C464.214 54.9991 463.655 55.62 463.655 55.62L486.894 87.4838L502.82 93.9037L502.839 93.8975ZM490.551 39.5018C489.142 38.2911 488.863 38.0366 489.123 38.0552C489.366 38.08 490.328 38.6016 491.154 39.2907C492.166 40.1165 492.265 40.607 492.309 40.7871C492.309 40.7995 492.309 40.7995 492.309 40.7995V40.8181C492.321 40.9113 492.34 40.992 492.346 41.0913C492.271 41.023 491.899 40.6815 490.545 39.5081L490.551 39.5018ZM430.822 30.3128C430.804 30.2631 430.804 30.2569 430.798 30.2631C430.767 30.2693 430.673 30.4494 430.86 30.5984C430.86 30.6108 430.866 30.6108 430.866 30.6108C430.866 30.6108 430.835 30.4059 430.822 30.3128ZM445.929 61.6985C446.562 61.6985 446.705 61.7109 448.412 64.449C449.492 66.1812 451.982 68.6524 451.982 68.6524L454.726 60.227L445.202 51.4104L444.078 44.4317C444.078 44.4317 443.588 43.7859 443.389 43.519C441.431 40.7705 440.036 38.9617 440.036 38.9617L436.075 35.5654L434.293 32.2748C434.293 32.2748 431.959 31.2689 430.872 30.6046C431.387 31.3621 432.654 32.697 432.654 32.697L430.282 33.6842L429.332 28.7233C429.332 28.7233 426.783 31.2193 423.782 34.7583C424.868 32.7901 426.271 30.9895 427.085 28.8661C427.004 28.8288 426.843 28.7109 426.843 28.7109L421.232 32.683L418.846 38.6695L421.534 42.6187C425.872 43.4217 428.606 43.5935 428.606 43.5935L430.574 43.6866L432.139 50.1376L436.379 54.8004L432.76 64.778L431.977 65.163L432.139 60.7175C432.139 60.7175 426.874 70.4778 426.985 70.6268L427.637 71.1918L433.517 72.2224L445.146 83.7212L452.609 80.5299L449.989 71.3284C449.989 71.3284 445.599 63.3438 445.929 61.6923V61.6985ZM446.556 78.1705C446.14 78.1022 444.389 76.7239 445.01 75.4386C445.159 75.6187 445.618 76.1837 446.177 76.7673C446.239 76.8356 446.301 76.9287 446.351 76.9908C446.68 77.5558 446.618 78.127 446.618 78.1333C446.605 78.1643 446.568 78.1581 446.549 78.1705H446.556ZM418.659 26.4819C418.641 26.2646 418.529 25.7555 417.771 25.681C417.536 25.6996 416.499 26.1032 416.499 26.1032L412.916 28.953C412.916 28.953 412.401 28.3942 412.022 28.6302C411.823 28.7605 411.457 29.1765 411.457 29.1765L409.892 35.0812C409.892 35.0812 410.923 35.2364 411.941 34.8638C412.537 34.5596 413.096 34.2802 413.698 33.6966C414.468 32.9453 415.462 31.1385 415.462 31.1385C415.462 31.1385 417.014 28.506 418.187 27.3263C418.101 27.4132 417.908 27.5809 417.908 27.5809C417.908 27.5809 418.67 26.7282 418.653 26.4881L418.659 26.4819ZM438.379 8.93572C438.379 8.93572 438.366 8.87984 438.372 8.855L438.36 8.7805C438.36 8.7805 438.335 8.83017 438.323 8.84879C438.174 9.14682 437.944 9.53797 437.876 9.58144C437.869 9.52556 438.025 9.28341 438.36 8.77429L438.161 9.02264C437.869 9.42622 437.472 9.94776 437.174 10.3451C437.509 9.80495 437.708 9.49451 438.36 8.77429L438.161 8.9233C434.622 11.531 432.965 13.94 433.38 13.9897C433.759 14.0394 434.573 13.6731 436.237 11.6428C436.584 11.2268 436.609 11.2144 436.708 11.1336C436.69 11.1895 436.249 12.5555 436.063 12.779C435.951 12.8907 435.889 12.8349 435.814 12.7666C435.721 12.6362 435.616 12.5244 435.268 12.9839C434.411 14.1077 433.97 15.486 433.014 16.5478C431.952 17.7212 431.45 18.0006 430.487 18.249C430.444 18.6153 430.388 19.2114 430.853 19.4162C430.903 19.4411 430.959 19.4783 431.009 19.4783C431.723 19.6211 433.132 19.3976 433.132 19.3976L434.958 20.2482C435.107 20.1303 435.231 19.9005 435.299 19.7267L435.901 17.0693C435.976 16.9079 436.156 16.734 436.268 16.5912C437.149 15.4177 437.336 14.7907 437.652 13.7724C437.652 13.7414 438.577 10.5686 438.385 8.93572H438.379ZM481.989 9.07231L480.456 8.95434C479.847 8.90467 479.009 8.83017 478.395 8.77429C472.62 8.34588 466.772 8.09752 460.867 8.04785L462.438 8.11615C468.957 8.43901 472.242 8.69357 480.046 9.63111C485.398 10.283 488.67 10.3886 489.782 9.96018C487.174 9.56902 484.585 9.30825 481.989 9.07231ZM440.502 8.98539C442.992 9.19028 445.463 9.5566 447.959 9.70561C447.81 9.66215 447.388 9.58144 444.954 9.32687C444.61 9.2979 442.433 9.11784 438.422 8.78671C438.559 8.80533 438.67 8.82396 438.807 8.83637L441.086 9.12198H441.135C444.941 9.61869 448.716 10.3079 452.553 10.6183C452.535 10.6183 449.989 10.0161 440.508 8.98539H440.502ZM440.713 9.0661C440.514 9.04127 440.322 9.01022 440.148 8.98539C440.415 9.01022 440.663 9.05368 440.788 9.05989C440.763 9.05989 440.738 9.0661 440.719 9.05989L440.713 9.0661ZM502.348 13.0398C502.348 13.0398 502.336 13.0398 502.323 13.0398C502.106 12.9839 501.87 12.9156 501.659 12.8597C501.243 12.7293 498.921 12.63 498.921 12.63C498.902 12.6362 498.902 12.6486 498.902 12.6548C498.915 12.6548 498.921 12.6672 498.933 12.6672C499.933 13.1267 503.559 13.8469 504.174 13.642C504.174 13.6296 504.18 13.611 504.192 13.6048C503.851 13.3812 502.659 13.1081 502.354 13.0398H502.348ZM434.262 10.9225C433.989 11.0095 433.151 11.4751 432.282 12.0153C431.412 12.5679 430.506 13.1639 430.084 13.5241C429.463 14.027 429.339 14.7844 429.475 14.8776C429.512 14.8962 429.643 14.9769 430.195 14.5796C430.642 14.265 431.959 13.0708 434.144 10.9971V10.9846L434.157 10.9784C434.194 10.9536 434.237 10.9412 434.268 10.9225H434.262ZM420.559 26.5812C420.553 26.5875 420.553 26.5999 420.541 26.5999C420.541 26.5999 420.534 26.604 420.522 26.6123H420.516L420.497 26.6371C420.479 26.6433 420.466 26.6495 420.454 26.6682C420.441 26.6744 420.441 26.6806 420.441 26.6806C420.336 26.7613 420.236 26.8296 420.131 26.9103L416.343 32.8708C416.343 32.8708 417.958 32.1692 419.889 30.6108C422.062 28.8537 422.701 28.3818 423.068 28.3135C423.08 28.3259 423.105 28.3321 423.123 28.3508C423.123 28.4066 423.136 28.4563 423.037 28.6426C423.061 28.5991 423.08 28.5867 423.086 28.5557L422.627 25.712L420.559 26.5812ZM433.449 12.5741H433.424C433.12 12.6114 432.269 13.1826 432.269 13.195C432.269 13.195 431.692 13.7414 431.847 13.8469C431.94 13.9276 432.3 13.7538 432.424 13.6917C432.486 13.6606 432.505 13.6606 432.511 13.6606C432.511 13.6606 432.515 13.6669 432.524 13.6793C432.486 13.7414 432.406 13.8407 432.188 14.058C432.617 13.6544 433.685 12.6238 433.449 12.5741ZM417.318 19.7143C417.269 19.6708 417.2 19.6273 417.151 19.5901C417.678 17.4232 420.683 15.9765 422.875 14.9086C423.906 14.4181 423.937 14.3809 424.061 14.2691H424.049C423.589 14.3064 417.418 15.8586 412.848 17.3549C412.835 17.3549 412.395 17.7399 412.699 17.9758C413.115 18.3049 414.754 18.1372 416.201 17.8392C416.201 17.8578 416.219 17.8951 416.219 17.9137C414.332 18.9692 412.196 19.5032 410.346 20.6456C410.346 20.6891 410.346 20.7511 410.352 20.7884C411.463 20.9622 412.506 20.1054 413.636 20.5773C413.643 20.5897 413.643 20.627 413.655 20.6456C413.469 20.8505 413.034 21.074 410.911 21.8936C410.222 22.1668 408.452 23.3216 409.948 23.2657C413.4 23.1167 415.04 22.8125 417.952 21.2851C418.386 21.0492 419.05 20.7946 419.411 20.4593C420.038 19.8819 420.373 19.0872 420.932 18.4601C421.515 17.833 422.267 17.386 422.825 16.7216C422.111 16.8023 418.448 19.1431 418.405 19.1679C417.809 19.5466 417.56 19.677 417.318 19.7205V19.7143ZM427.873 13.4309C426.93 13.611 423.726 14.9583 423.384 15.4364C423.397 15.4364 423.403 15.4488 423.403 15.4488C423.535 15.4447 424.814 14.9314 427.24 13.909C427.383 13.8531 427.898 13.5303 427.935 13.4371C427.917 13.4371 427.892 13.4309 427.873 13.4309ZM429.016 17.1252C429.016 17.1252 428.923 16.9886 428.786 16.97C428.395 16.9327 427.308 17.8827 427.557 18.2055C427.761 18.4849 428.649 18.3111 429.047 17.9199C429.076 17.8951 429.123 17.7937 429.19 17.6157C429.115 17.4542 429.103 17.2804 429.016 17.1252ZM431.946 15.9269C431.785 15.9828 431.325 16.4112 431.102 16.734C430.965 16.9637 430.978 16.9948 431.114 17.2245C431.158 17.1686 431.214 17.0941 431.251 17.0507C431.648 16.5415 432.101 15.9207 431.946 15.9331V15.9269ZM427.333 13.878C427.283 13.8904 426.886 14.1449 426.749 14.2381C426.749 14.2381 427.321 13.9276 427.339 13.878H427.333ZM426.476 17.6219C426.129 17.684 425.768 17.8454 425.129 18.2117C424.787 18.4104 424.26 18.7146 424.061 18.516C423.937 18.398 423.955 18.1931 423.813 18.0813C423.769 18.0441 423.657 18.013 423.484 18.0565C423.239 18.1145 422.97 18.2717 422.676 18.5284L420.354 23.036L424.179 20.6828C424.831 20.0992 425.21 19.7018 425.576 19.3231C425.415 19.5032 425.247 19.6894 425.085 19.8695C425.315 19.6149 425.539 19.3666 425.781 19.1182C425.793 19.1182 425.799 19.0996 425.799 19.0872C426.439 18.3607 427.023 17.6405 426.476 17.6343V17.6219ZM424.564 21.7011C423.633 21.8004 422.105 23.0546 422.776 23.5886C423.111 23.8618 423.825 23.7252 424.471 23.2719C424.502 23.2409 424.564 23.2161 424.576 23.1726C425.185 21.7259 424.75 21.7011 424.564 21.7011ZM433.418 22.2785C433.38 22.1047 433.157 21.9929 432.965 21.9929C432.611 21.9805 431.897 22.1233 431.897 22.1233L430.375 22.1916L428.656 21.4962C428.656 21.4962 428.891 19.7577 428.829 18.8885H428.786H428.749C428.749 18.8885 428.742 18.8761 428.73 18.8761C428.718 18.8761 428.711 18.8761 428.711 18.8761H428.68H428.674H428.631C426.836 21.1858 425.427 24.8055 425.427 24.8055C425.427 24.8055 425.545 25.1656 425.992 25.3519C426.066 25.3954 426.197 25.4388 426.284 25.4574C426.706 25.6002 427.159 25.6189 427.6 25.7555C428.016 25.8797 428.395 26.1156 428.805 26.2522C429.214 26.395 430.543 26.5564 430.543 26.5564L433.405 23.3651C433.405 23.3651 433.592 22.8001 433.616 22.5455C433.536 22.4772 433.443 22.3965 433.424 22.2971L433.418 22.2785ZM420.429 26.6682C420.429 26.6682 420.423 26.6744 420.423 26.6806C420.423 26.6806 420.429 26.6806 420.441 26.6682H420.429ZM737.415 274.829L730.289 239.383L719.447 203.937C719.898 208.105 720.111 210.239 720.086 210.338C720.086 210.338 718.894 210.146 718.397 210.065L718.95 222.998L699.69 200.721C697.871 201.95 697.436 202.242 695.549 204.024L684.398 221.911L675.649 224.401C675.649 224.401 674.433 235.54 673.805 241.109L676.71 287.134L703.648 302.799L737.415 274.829Z" fill="#16ABFF"/>
<path opacity="0.3" d="M104.175 261.536C104.293 260.934 104.405 260.338 104.523 259.742C103.865 257.581 103.765 255.426 104.194 253.266L103.827 255.135C103.418 257.264 103.523 259.406 104.169 261.536H104.175ZM112.569 272.613C112.681 272.01 112.793 271.408 112.905 270.806C108.559 267.267 105.827 263.69 104.641 260.102C104.517 260.704 104.405 261.294 104.293 261.896C105.485 265.485 108.217 269.073 112.569 272.613ZM130.451 282.963C130.556 282.354 130.662 281.752 130.768 281.137C123.64 278.008 117.785 274.686 113.358 271.172C113.246 271.774 113.128 272.377 113.016 272.979C117.45 276.493 123.311 279.827 130.445 282.963H130.451ZM156.727 292.096C156.82 291.487 156.913 290.873 157.012 290.264C147.333 287.545 138.777 284.608 131.513 281.466C131.407 282.069 131.302 282.677 131.202 283.286C138.473 286.427 147.041 289.37 156.733 292.096H156.727ZM190.019 299.795C190.099 299.18 190.18 298.565 190.261 297.951C178.501 295.703 167.704 293.232 158.006 290.544C157.913 291.152 157.819 291.767 157.72 292.375C167.431 295.07 178.24 297.547 190.019 299.795ZM229.743 306.06C229.805 305.439 229.867 304.824 229.935 304.209C216.257 302.446 203.392 300.428 191.49 298.181C191.409 298.795 191.329 299.41 191.254 300.025C203.169 302.272 216.052 304.29 229.743 306.053V306.06ZM274.359 310.71C274.403 310.089 274.453 309.468 274.496 308.854C259.421 307.624 244.985 306.134 231.338 304.396C231.27 305.016 231.208 305.631 231.146 306.246C244.805 307.984 259.26 309.481 274.353 310.716L274.359 310.71ZM323.397 313.69C323.422 313.076 323.446 312.455 323.471 311.834C307.13 311.157 291.278 310.201 276.061 308.978C276.017 309.599 275.967 310.213 275.93 310.834C291.161 312.057 307.037 313.02 323.397 313.69ZM375.564 314.882C375.564 314.261 375.564 313.641 375.576 313.02C358.402 312.939 341.545 312.56 325.173 311.902C325.148 312.517 325.123 313.138 325.098 313.765C341.496 314.423 358.365 314.795 375.564 314.882ZM429.469 314.174C429.444 313.554 429.431 312.939 429.413 312.318C411.842 312.858 394.438 313.088 377.345 313.026C377.345 313.647 377.345 314.268 377.339 314.889C394.457 314.944 411.885 314.715 429.475 314.174H429.469ZM484.746 311.461C484.709 310.84 484.665 310.226 484.616 309.605C466.765 310.809 448.915 311.697 431.232 312.262C431.251 312.877 431.275 313.498 431.294 314.119C449.002 313.554 466.871 312.672 484.746 311.467V311.461ZM538.117 306.829C538.055 306.215 537.987 305.6 537.918 304.979C523.595 306.513 508.644 307.866 493.14 309.003C490.918 309.164 488.695 309.332 486.46 309.481C486.509 310.101 486.553 310.716 486.59 311.337C488.825 311.182 491.048 311.02 493.271 310.859C508.793 309.717 523.762 308.369 538.111 306.829H538.117ZM586.614 300.571C586.521 299.956 586.441 299.342 586.36 298.727C571.67 300.974 556.061 303.011 539.62 304.793C539.688 305.414 539.75 306.029 539.812 306.643C556.272 304.855 571.906 302.819 586.614 300.571ZM628.934 292.996C628.835 292.388 628.735 291.773 628.63 291.165C616.019 293.797 602.391 296.25 587.869 298.497C587.956 299.112 588.042 299.727 588.129 300.341C602.677 298.094 616.311 295.635 628.94 292.996H628.934ZM665.026 284.223C664.908 283.621 664.784 283.012 664.672 282.404C654.173 285.39 642.562 288.228 629.933 290.891C630.033 291.506 630.132 292.108 630.232 292.723C642.885 290.053 654.508 287.216 665.02 284.223H665.026ZM693.785 274.606C693.661 274.003 693.524 273.395 693.4 272.793C685.347 276.009 676.096 279.119 665.752 282.1C665.87 282.702 665.988 283.31 666.106 283.919C676.469 280.939 685.726 277.828 693.791 274.606H693.785ZM714.988 264.224C714.846 263.622 714.715 263.026 714.572 262.43C709.071 265.857 702.26 269.21 694.238 272.457C694.369 273.06 694.499 273.662 694.623 274.27C702.658 271.017 709.475 267.658 714.995 264.224H714.988ZM727.729 253.44C727.592 252.844 727.443 252.247 727.301 251.651C724.6 255.178 720.514 258.655 715.131 262.07C715.274 262.672 715.417 263.268 715.547 263.864C720.936 260.449 725.028 256.966 727.723 253.44H727.729ZM731.554 242.344C731.411 241.755 731.268 241.165 731.119 240.575C731.411 244.157 730.2 247.746 727.58 251.291C727.723 251.881 727.866 252.477 728.008 253.073C730.635 249.522 731.845 245.939 731.56 242.344H731.554ZM731.212 240.271L730.759 238.42C730.908 239.01 731.013 239.606 731.076 240.202C731.224 240.792 731.367 241.376 731.51 241.972C731.448 241.407 731.349 240.836 731.212 240.271Z" fill="#2E6685"/>
<path opacity="0.3" d="M118.958 209.357C119.169 208.799 119.386 208.24 119.604 207.675C118.734 204.825 118.89 201.969 120.007 199.125L119.331 200.87C118.238 203.683 118.101 206.526 118.958 209.351V209.357ZM126.924 219.881C127.135 219.316 127.34 218.745 127.551 218.18C123.435 214.827 120.852 211.431 119.715 208.035C119.498 208.594 119.287 209.159 119.076 209.718C120.212 213.12 122.801 216.516 126.924 219.881ZM143.899 229.691C144.091 229.12 144.284 228.543 144.483 227.965C137.727 224.997 132.177 221.85 127.986 218.515C127.775 219.08 127.563 219.658 127.359 220.223C131.562 223.557 137.125 226.717 143.899 229.685V229.691ZM168.827 238.359C169.001 237.775 169.181 237.198 169.355 236.614C160.178 234.031 152.076 231.25 145.19 228.276C144.992 228.853 144.799 229.431 144.607 230.002C151.505 232.988 159.632 235.776 168.827 238.365V238.359ZM200.418 245.667C200.567 245.077 200.722 244.493 200.877 243.903C189.733 241.768 179.494 239.427 170.305 236.875C170.125 237.452 169.951 238.036 169.777 238.62C178.985 241.172 189.248 243.531 200.418 245.66V245.667ZM238.112 251.615C238.236 251.025 238.36 250.429 238.484 249.839C225.527 248.169 213.332 246.257 202.045 244.127C201.896 244.711 201.74 245.3 201.591 245.89C212.904 248.026 225.123 249.938 238.112 251.615ZM280.45 256.023C280.543 255.427 280.63 254.831 280.723 254.235C266.437 253.061 252.746 251.652 239.819 250.007C239.695 250.597 239.571 251.193 239.453 251.782C252.411 253.434 266.126 254.856 280.45 256.023ZM326.973 258.854C327.029 258.258 327.091 257.662 327.147 257.06C311.656 256.42 296.63 255.514 282.207 254.353C282.114 254.949 282.027 255.545 281.934 256.141C296.394 257.302 311.451 258.215 326.973 258.854ZM376.476 259.978C376.495 259.382 376.513 258.78 376.532 258.184C360.246 258.109 344.271 257.749 328.755 257.128C328.699 257.73 328.649 258.327 328.593 258.923C344.153 259.55 360.159 259.91 376.482 259.984L376.476 259.978ZM427.631 259.314C427.606 258.718 427.581 258.115 427.562 257.519C410.91 258.029 394.407 258.252 378.208 258.19C378.19 258.792 378.177 259.394 378.158 259.991C394.401 260.046 410.941 259.823 427.631 259.314ZM480.083 256.737C480.021 256.141 479.959 255.545 479.897 254.949C462.977 256.091 446.058 256.93 429.288 257.464C429.319 258.053 429.338 258.656 429.363 259.258C446.176 258.718 463.126 257.886 480.083 256.737ZM530.728 252.341C530.623 251.751 530.53 251.155 530.424 250.559C516.845 252.018 502.677 253.297 487.98 254.378C485.869 254.533 483.758 254.688 481.654 254.831C481.722 255.427 481.778 256.023 481.846 256.619C483.957 256.476 486.074 256.321 488.185 256.172C502.913 255.092 517.112 253.807 530.728 252.347V252.341ZM576.742 246.406C576.605 245.816 576.469 245.232 576.332 244.642C562.406 246.772 547.604 248.697 532.026 250.392C532.132 250.981 532.237 251.578 532.33 252.174C547.952 250.472 562.778 248.541 576.742 246.406ZM616.901 239.216C616.739 238.632 616.572 238.055 616.41 237.471C604.452 239.967 591.538 242.295 577.767 244.425C577.909 245.009 578.046 245.598 578.182 246.188C591.991 244.059 604.924 241.724 616.907 239.216H616.901ZM651.149 230.896C650.956 230.318 650.758 229.741 650.571 229.164C640.619 231.989 629.61 234.683 617.64 237.204C617.807 237.788 617.975 238.365 618.143 238.949C630.144 236.416 641.177 233.727 651.149 230.89V230.896ZM678.443 221.763C678.226 221.198 678.021 220.626 677.803 220.061C670.166 223.11 661.406 226.059 651.59 228.878C651.788 229.449 651.981 230.027 652.173 230.61C662.008 227.785 670.794 224.824 678.443 221.769V221.763ZM698.56 211.915C698.336 211.35 698.106 210.785 697.87 210.227C692.655 213.48 686.198 216.659 678.592 219.732C678.809 220.297 679.026 220.869 679.238 221.44C686.862 218.354 693.332 215.169 698.56 211.909V211.915ZM710.648 201.683C710.412 201.131 710.17 200.578 709.934 200.019C707.376 203.36 703.502 206.663 698.398 209.898C698.622 210.463 698.864 211.015 699.087 211.58C704.197 208.339 708.078 205.036 710.642 201.683H710.648ZM714.274 191.159C714.032 190.613 713.79 190.067 713.548 189.52C713.821 192.923 712.678 196.319 710.195 199.678C710.437 200.23 710.673 200.783 710.909 201.336C713.399 197.964 714.553 194.562 714.28 191.159H714.274ZM713.138 186.801L712.38 185.093C712.989 186.453 713.374 187.813 713.517 189.172C713.765 189.719 714.001 190.259 714.237 190.805C714.1 189.47 713.728 188.136 713.138 186.801Z" fill="#2E6685"/>
<path opacity="0.3" d="M143.589 151.137C143.894 150.634 144.198 150.131 144.496 149.634C144.639 149.374 144.788 149.113 144.949 148.852L143.987 150.442C143.85 150.671 143.714 150.901 143.589 151.131V151.137ZM142.391 160.761C142.695 160.252 142.993 159.736 143.304 159.227C142.366 156.129 142.733 153.031 144.334 149.957C144.03 150.454 143.726 150.951 143.422 151.454C141.82 154.546 141.447 157.65 142.391 160.761ZM149.699 170.409C149.991 169.888 150.289 169.36 150.587 168.845C146.812 165.771 144.446 162.661 143.409 159.544C143.105 160.053 142.801 160.568 142.497 161.084C143.54 164.207 145.911 167.33 149.705 170.409H149.699ZM165.264 179.412C165.544 178.878 165.823 178.338 166.103 177.81C159.912 175.097 154.827 172.204 150.984 169.155C150.686 169.677 150.388 170.198 150.096 170.72C153.952 173.774 159.056 176.68 165.264 179.406V179.412ZM188.138 187.366C188.392 186.825 188.641 186.279 188.895 185.739C180.482 183.373 173.057 180.821 166.748 178.096C166.469 178.63 166.19 179.164 165.916 179.698C172.249 182.436 179.7 184.994 188.138 187.366ZM217.127 194.065C217.338 193.519 217.555 192.966 217.779 192.413C207.565 190.464 198.184 188.316 189.765 185.975C189.51 186.515 189.262 187.061 189.007 187.608C197.457 189.955 206.876 192.109 217.127 194.065ZM251.704 199.523C251.884 198.964 252.058 198.405 252.238 197.852C240.36 196.319 229.184 194.568 218.853 192.618C218.629 193.165 218.418 193.717 218.201 194.27C228.576 196.226 239.789 197.983 251.704 199.523ZM290.546 203.564C290.677 202.999 290.813 202.441 290.944 201.882C277.849 200.808 265.314 199.516 253.461 198.008C253.281 198.566 253.107 199.119 252.933 199.678C264.829 201.193 277.409 202.497 290.546 203.571V203.564ZM333.226 206.166C333.307 205.601 333.394 205.036 333.474 204.471C319.281 203.887 305.51 203.055 292.297 201.994C292.167 202.559 292.037 203.117 291.906 203.682C305.162 204.744 318.983 205.576 333.226 206.166ZM378.637 207.197C378.669 206.632 378.7 206.067 378.731 205.502C363.811 205.427 349.17 205.104 334.952 204.527C334.865 205.086 334.791 205.657 334.71 206.222C348.978 206.793 363.674 207.122 378.644 207.197H378.637ZM425.558 206.582C425.533 206.011 425.514 205.452 425.483 204.887C410.228 205.359 395.11 205.558 380.264 205.508C380.233 206.067 380.208 206.638 380.177 207.203C395.072 207.259 410.247 207.054 425.558 206.582ZM473.682 204.223C473.602 203.658 473.521 203.099 473.44 202.54C457.937 203.583 442.433 204.347 427.066 204.837C427.091 205.402 427.122 205.961 427.147 206.532C442.564 206.029 458.117 205.272 473.682 204.223ZM520.143 200.193C520.013 199.634 519.876 199.075 519.746 198.517C507.303 199.852 494.321 201.025 480.854 202.012C478.923 202.155 476.992 202.292 475.061 202.422C475.135 202.987 475.222 203.546 475.303 204.111C477.246 203.98 479.19 203.844 481.121 203.695C494.637 202.701 507.663 201.528 520.149 200.193H520.143ZM562.351 194.748C562.177 194.195 561.991 193.643 561.805 193.09C549.045 195.04 535.485 196.809 521.211 198.355C521.342 198.914 521.484 199.473 521.621 200.025C535.945 198.473 549.554 196.697 562.351 194.742V194.748ZM599.2 188.154C598.971 187.608 598.747 187.061 598.517 186.521C587.559 188.806 575.731 190.942 563.121 192.891C563.301 193.444 563.487 193.99 563.673 194.549C576.333 192.587 588.205 190.451 599.207 188.16L599.2 188.154ZM630.611 180.517C630.35 179.983 630.089 179.443 629.829 178.915C620.714 181.504 610.625 183.976 599.654 186.285C599.883 186.825 600.107 187.372 600.337 187.918C611.339 185.596 621.465 183.119 630.611 180.523V180.517ZM655.651 172.135C655.366 171.614 655.068 171.086 654.782 170.564C647.785 173.365 639.757 176.066 630.766 178.648C631.033 179.182 631.294 179.71 631.548 180.25C640.57 177.661 648.629 174.948 655.651 172.135ZM674.11 163.101C673.8 162.586 673.483 162.071 673.173 161.555C668.392 164.536 662.475 167.448 655.508 170.266C655.794 170.788 656.092 171.31 656.384 171.837C663.375 169.006 669.311 166.082 674.11 163.095V163.101ZM685.199 153.714C684.87 153.211 684.547 152.708 684.224 152.205C681.877 155.266 678.332 158.29 673.657 161.251C673.967 161.76 674.284 162.282 674.588 162.791C679.276 159.817 682.84 156.787 685.199 153.714ZM688.527 144.059C688.198 143.562 687.869 143.078 687.54 142.581C687.788 145.698 686.739 148.809 684.46 151.888C684.789 152.385 685.112 152.894 685.435 153.397C687.72 150.305 688.775 147.182 688.527 144.053V144.059ZM686.093 137.583L685.056 136.037C686.466 138.105 687.273 140.185 687.503 142.258C687.838 142.749 688.161 143.239 688.49 143.736C688.26 141.681 687.471 139.626 686.093 137.583Z" fill="#2E6685"/>
<path opacity="0.3" d="M174.403 108.687C174.782 108.246 175.167 107.805 175.552 107.371C176.179 106.228 176.992 105.086 177.998 103.962L176.769 105.359C175.8 106.464 175.012 107.582 174.397 108.693L174.403 108.687ZM173.342 117.181C173.727 116.721 174.112 116.268 174.497 115.815C173.671 113.083 173.994 110.351 175.403 107.644C175.018 108.079 174.633 108.519 174.254 108.96C172.839 111.686 172.516 114.43 173.342 117.174V117.181ZM179.793 125.699C180.165 125.227 180.544 124.762 180.916 124.296C177.589 121.589 175.496 118.851 174.583 116.107C174.198 116.56 173.814 117.013 173.429 117.466C174.348 120.229 176.44 122.98 179.793 125.699ZM193.539 133.653C193.893 133.168 194.241 132.69 194.595 132.212C189.137 129.809 184.654 127.264 181.264 124.582C180.892 125.047 180.519 125.519 180.14 125.985C183.549 128.686 188.057 131.244 193.539 133.653ZM213.73 140.669C214.047 140.172 214.363 139.682 214.686 139.191C207.273 137.105 200.723 134.857 195.16 132.454C194.812 132.939 194.458 133.417 194.104 133.901C199.692 136.316 206.273 138.576 213.724 140.675L213.73 140.669ZM239.317 146.586C239.596 146.089 239.869 145.586 240.149 145.083C231.146 143.357 222.876 141.463 215.456 139.408C215.14 139.899 214.817 140.396 214.506 140.886C221.963 142.954 230.277 144.86 239.323 146.586H239.317ZM269.846 151.398C270.075 150.888 270.299 150.373 270.522 149.87C260.054 148.523 250.201 146.977 241.086 145.257C240.807 145.76 240.534 146.263 240.261 146.766C249.419 148.492 259.322 150.044 269.84 151.398H269.846ZM304.137 154.974C304.305 154.459 304.472 153.937 304.646 153.428C293.104 152.49 282.052 151.342 271.603 150.013C271.379 150.522 271.156 151.031 270.932 151.54C281.431 152.875 292.539 154.024 304.137 154.974ZM341.819 157.265C341.93 156.743 342.036 156.222 342.141 155.707C329.637 155.185 317.492 154.452 305.845 153.521C305.677 154.036 305.509 154.558 305.342 155.067C317.045 156.011 329.246 156.75 341.819 157.265ZM381.909 158.178C381.953 157.656 381.996 157.135 382.039 156.619C368.883 156.551 355.981 156.265 343.452 155.756C343.34 156.272 343.234 156.799 343.129 157.315C355.726 157.824 368.697 158.116 381.909 158.171V158.178ZM423.341 157.638C423.316 157.122 423.285 156.601 423.266 156.079C409.812 156.489 396.487 156.675 383.399 156.625C383.356 157.147 383.318 157.669 383.275 158.19C396.425 158.24 409.824 158.06 423.341 157.644V157.638ZM465.815 155.551C465.728 155.036 465.629 154.521 465.536 153.999C451.864 154.924 438.198 155.595 424.657 156.036C424.682 156.551 424.713 157.072 424.738 157.594C438.354 157.153 452.081 156.476 465.822 155.551H465.815ZM506.837 151.994C506.676 151.485 506.514 150.969 506.353 150.466C495.382 151.64 483.939 152.67 472.061 153.546C470.36 153.676 468.653 153.8 466.952 153.906C467.057 154.428 467.15 154.943 467.25 155.458C468.963 155.346 470.677 155.222 472.384 155.098C484.318 154.223 495.817 153.18 506.843 152L506.837 151.994ZM544.103 147.182C543.885 146.679 543.656 146.176 543.426 145.673C532.182 147.393 520.223 148.951 507.644 150.323C507.806 150.833 507.973 151.342 508.135 151.857C520.782 150.479 532.796 148.914 544.103 147.188V147.182ZM576.631 141.364C576.351 140.867 576.078 140.371 575.799 139.88C566.144 141.892 555.719 143.773 544.593 145.493C544.817 146.002 545.046 146.499 545.27 147.008C556.446 145.276 566.926 143.388 576.631 141.364ZM604.366 134.621C604.043 134.143 603.72 133.659 603.397 133.175C595.357 135.466 586.466 137.633 576.792 139.675C577.072 140.166 577.351 140.663 577.63 141.153C587.347 139.104 596.282 136.919 604.366 134.621ZM626.469 127.233C626.115 126.755 625.755 126.283 625.395 125.817C619.23 128.282 612.145 130.666 604.223 132.939C604.546 133.423 604.869 133.901 605.191 134.385C613.151 132.094 620.273 129.704 626.469 127.233ZM642.767 119.248C642.382 118.789 642.004 118.336 641.613 117.876C637.397 120.502 632.188 123.067 626.041 125.556C626.395 126.028 626.761 126.5 627.115 126.972C633.286 124.47 638.533 121.893 642.767 119.248ZM652.553 110.959C652.155 110.519 651.758 110.072 651.354 109.625C649.287 112.325 646.157 114.989 642.041 117.603C642.426 118.056 642.817 118.516 643.202 118.975C647.337 116.349 650.479 113.673 652.559 110.959H652.553ZM655.496 102.441C655.092 102.012 654.682 101.578 654.279 101.149C654.496 103.894 653.571 106.638 651.559 109.358C651.963 109.798 652.366 110.245 652.77 110.686C654.788 107.961 655.713 105.204 655.496 102.441ZM650.963 93.8354C650.597 93.4567 650.23 93.078 649.87 92.6992C652.515 95.4001 653.949 98.132 654.248 100.858C654.651 101.286 655.067 101.714 655.464 102.149C655.166 99.411 653.726 96.6667 651.075 93.9472L650.963 93.8292V93.8354Z" fill="#2E6685"/>
<path d="M285.142 158.387L285.142 151.219L292.311 151.219L292.311 158.387L285.142 158.387Z" fill="white"/>
<path d="M292.311 166.273L292.311 159.104L299.48 159.104L299.48 166.273L292.311 166.273Z" stroke="white" stroke-width="4"/>
<path d="M405.576 191.363L405.576 184.195L412.745 184.195L412.745 191.363L405.576 191.363Z" fill="white"/>
<path d="M412.745 199.249L412.745 192.08L419.913 192.08L419.913 199.249L412.745 199.249Z" stroke="white" stroke-width="4"/>
<path d="M343.925 227.923L343.925 220.755L351.094 220.755L351.094 227.923L343.925 227.923Z" fill="white"/>
<path d="M351.094 235.809L351.094 228.64L358.263 228.64L358.263 235.809L351.094 235.809Z" stroke="white" stroke-width="4"/>
<path d="M269.371 212.869L269.371 205.7L276.54 205.7L276.54 212.869L269.371 212.869Z" fill="white"/>
<path d="M276.54 220.755L276.54 213.586L283.709 213.586L283.709 220.755L276.54 220.755Z" stroke="white" stroke-width="4"/>
<path d="M309.516 288.857L309.516 281.689L316.684 281.689L316.684 288.857L309.516 288.857Z" fill="white"/>
<path d="M316.684 296.743L316.684 289.574L323.853 289.574L323.853 296.743L316.684 296.743Z" stroke="white" stroke-width="4"/>
<path d="M281.558 61.6104L281.558 54.4417L288.727 54.4417L288.727 61.6104L281.558 61.6104Z" fill="white"/>
<path d="M288.727 69.4961L288.727 62.3274L295.895 62.3274L295.895 69.4961L288.727 69.4961Z" stroke="white" stroke-width="4"/>
<path d="M482.281 70.2129L482.281 63.0442L489.449 63.0442L489.449 70.2129L482.281 70.2129Z" fill="white"/>
<path d="M489.449 78.0981L489.449 70.9295L496.618 70.9295L496.618 78.0981L489.449 78.0981Z" stroke="white" stroke-width="4"/>
<path d="M522.425 70.2129L522.425 63.0442L529.594 63.0442L529.594 70.2129L522.425 70.2129Z" fill="white"/>
<path d="M529.594 78.0981L529.594 70.9295L536.763 70.9295L536.763 78.0981L529.594 78.0981Z" stroke="white" stroke-width="4"/>
<path d="M586.943 96.7368L586.943 89.5681L594.112 89.5681L594.112 96.7368L586.943 96.7368Z" fill="white"/>
<path d="M594.112 104.623L594.112 97.4539L601.281 97.4539L601.281 104.623L594.112 104.623Z" stroke="white" stroke-width="4"/>
<path d="M643.576 174.159L643.576 166.99L650.744 166.99L650.744 174.159L643.576 174.159Z" fill="white"/>
<path d="M650.744 182.044L650.744 174.875L657.913 174.875L657.913 182.044L650.744 182.044Z" stroke="white" stroke-width="4"/>
<path d="M631.389 131.146L631.389 123.978L638.558 123.978L638.558 131.146L631.389 131.146Z" fill="white"/>
<path d="M638.558 139.032L638.558 131.864L645.726 131.864L645.726 139.032L638.558 139.032Z" stroke="white" stroke-width="4"/>
<path d="M625.654 98.1704L625.654 91.0017L632.823 91.0017L632.823 98.1704L625.654 98.1704Z" fill="white"/>
<path d="M632.823 106.056L632.823 98.8875L639.991 98.8875L639.991 106.056L632.823 106.056Z" stroke="white" stroke-width="4"/>
<path d="M599.13 73.7969L599.13 66.6282L606.299 66.6282L606.299 73.7969L599.13 73.7969Z" fill="white"/>
<path d="M606.299 81.6826L606.299 74.5139L613.467 74.5139L613.467 81.6826L606.299 81.6826Z" stroke="white" stroke-width="4"/>
<path d="M663.648 125.412L663.648 118.243L670.817 118.243L670.817 125.412L663.648 125.412Z" fill="white"/>
<path d="M670.817 133.297L670.817 126.128L677.985 126.128L677.985 133.297L670.817 133.297Z" stroke="white" stroke-width="4"/>
<path d="M714.546 221.472L714.546 214.303L721.714 214.303L721.714 221.472L714.546 221.472Z" fill="white"/>
<path d="M721.714 229.357L721.714 222.189L728.883 222.189L728.883 229.357L721.714 229.357Z" stroke="white" stroke-width="4"/>
<path d="M682.287 233.658L682.287 226.49L689.455 226.49L689.455 233.658L682.287 233.658Z" fill="white"/>
<path d="M689.455 241.544L689.455 234.375L696.624 234.375L696.624 241.544L689.455 241.544Z" stroke="white" stroke-width="4"/>
<path opacity="0.3" d="M359.31 5.15467C358.689 5.26022 358.074 5.36577 357.466 5.47132C339.839 8.57574 322.739 13.0958 306.292 18.9321C305.727 19.1308 305.156 19.3357 304.591 19.5406C288.082 25.5072 272.237 32.784 257.187 41.2529C256.671 41.5447 256.162 41.8365 255.647 42.1283C240.752 50.622 226.651 60.2768 213.47 70.9808C213.017 71.3533 212.564 71.7197 212.11 72.0984C198.898 82.9452 186.623 94.8352 175.41 107.656C175.025 108.091 174.64 108.538 174.255 108.979C163.191 121.775 153.17 135.484 144.341 149.963C144.037 150.46 143.732 150.963 143.428 151.466C140.082 157.023 136.909 162.698 133.91 168.472L136.983 162.685C139.107 158.786 141.311 154.937 143.596 151.143C143.9 150.646 144.204 150.137 144.502 149.641C153.331 135.168 163.346 121.477 174.404 108.687C174.783 108.246 175.168 107.805 175.553 107.365C186.76 94.562 199.028 82.6783 212.228 71.85C212.682 71.4775 213.135 71.1112 213.588 70.7387C226.763 60.0532 240.857 50.4109 255.734 41.9358C256.243 41.644 256.758 41.3584 257.28 41.0666C272.317 32.6164 288.15 25.3582 304.653 19.4102C305.224 19.2053 305.789 19.0066 306.354 18.8017C322.789 12.984 339.876 8.48261 357.49 5.40302C358.105 5.29747 358.72 5.19192 359.334 5.08637C376.316 2.21789 393.775 0.684302 411.619 0.584961C393.769 0.702929 376.291 2.25514 359.303 5.14225L359.31 5.15467Z" fill="#2E6685"/>
</svg>
