<svg width="20" height="16" viewBox="0 0 20 16" fill="none" xmlns="http://www.w3.org/2000/svg">
<path fill-rule="evenodd" clip-rule="evenodd" d="M19.3649 1.50146C19.1027 4.26453 17.9635 10.9719 17.3852 14.0671C17.1405 15.378 16.6568 15.8164 16.1907 15.8586C15.1753 15.9518 14.4047 15.1872 13.4214 14.5434C11.8831 13.5354 11.0134 12.9077 9.52025 11.923C7.79401 10.7855 8.91279 10.1606 9.8961 9.13958C10.1539 8.87158 14.6261 4.80345 14.7135 4.43494C14.7237 4.38833 14.7354 4.21646 14.632 4.12616C14.5285 4.03585 14.3785 4.06644 14.2707 4.0912C14.1163 4.12616 11.6588 5.75021 6.89666 8.96334C6.19888 9.44255 5.56665 9.6756 4.99998 9.66394C4.37649 9.65083 3.17613 9.31146 2.28315 9.02015C1.18914 8.66475 0.318002 8.4754 0.393753 7.87239C0.433085 7.55778 0.865738 7.23588 1.69317 6.9067C6.78886 4.68693 10.1874 3.2231 11.8875 2.51522C16.7428 0.496445 17.7509 0.145417 18.4093 0.133765C19.2338 0.122113 19.4319 0.80232 19.3649 1.50146Z" fill="white"/>
</svg>
