<svg width="17" height="18" viewBox="0 0 17 18" fill="none" xmlns="http://www.w3.org/2000/svg">
<path fill-rule="evenodd" clip-rule="evenodd" d="M0.719446 17.1972C0.839779 17.1972 0.956223 17.1977 1.06982 17.1983C1.37256 17.1997 1.65509 17.201 1.93724 17.1917C2.02578 17.1888 2.13811 17.139 2.19555 17.0724C3.44421 15.6282 4.6888 14.1803 5.93335 12.7325C6.18104 12.4444 6.42873 12.1563 6.67645 11.8682C6.87841 11.6331 7.08104 11.3986 7.28829 11.1588C7.38517 11.0468 7.48306 10.9335 7.58236 10.8185C7.59852 10.8399 7.61338 10.8593 7.62725 10.8773C7.65454 10.9128 7.67798 10.9433 7.69981 10.9751C7.95632 11.3482 8.2128 11.7214 8.46928 12.0946C9.61173 13.757 10.7543 15.4196 11.9004 17.0794C11.9425 17.1401 12.0439 17.1928 12.1178 17.1928C13.4807 17.1988 14.8437 17.1981 16.2066 17.1974L16.5775 17.1972C16.6023 17.1972 16.6272 17.193 16.6565 17.188C16.672 17.1854 16.6887 17.1825 16.7073 17.18C16.5475 16.9468 16.3882 16.7144 16.2293 16.4826C15.6486 15.6353 15.0735 14.7963 14.4974 13.9577L14.1304 13.4235C12.8573 11.5709 11.5842 9.71825 10.3074 7.86802C10.2364 7.76484 10.2533 7.7085 10.3283 7.62142C12.2012 5.44993 14.0716 3.27624 15.9416 1.10255C15.9933 1.04255 16.0427 0.980315 16.099 0.909325C16.1251 0.876435 16.1527 0.841664 16.1827 0.804364C16.0668 0.804364 15.954 0.803836 15.8434 0.803319C15.5422 0.801911 15.2578 0.800583 14.9738 0.810218C14.8856 0.81351 14.777 0.867295 14.7166 0.933153C14.5321 1.13464 14.3551 1.34281 14.1781 1.55105C14.1067 1.63512 14.0352 1.71919 13.9633 1.80285C13.7162 2.09005 13.4692 2.37727 13.2222 2.6645C12.1513 3.90967 11.0803 5.15495 10.0089 6.39975C9.92419 6.49799 9.83785 6.59474 9.74794 6.6955C9.70459 6.74408 9.66041 6.79359 9.61518 6.84466C9.59877 6.82198 9.58364 6.80126 9.56947 6.78185C9.53813 6.73893 9.51147 6.70241 9.48602 6.66538C9.31288 6.41347 9.13973 6.16157 8.96659 5.90968C7.83352 4.26133 6.70059 2.61316 5.5704 0.96279C5.4943 0.851929 5.41783 0.799973 5.27624 0.800705C4.1763 0.805147 3.07636 0.804954 1.97627 0.804762C1.62618 0.804702 1.27608 0.804641 0.925959 0.804729C0.886498 0.804729 0.847037 0.807591 0.801181 0.810917C0.779434 0.812494 0.75625 0.814176 0.730945 0.815706C0.739743 0.830708 0.747359 0.84397 0.754254 0.855977C0.769723 0.882918 0.781561 0.903534 0.794974 0.923274C1.21383 1.53565 1.63291 2.14834 2.05323 2.75999C2.20769 2.98475 2.36215 3.20952 2.51662 3.4343C3.9643 5.54095 5.41203 7.64767 6.86305 9.7523C6.9494 9.87743 6.95635 9.95462 6.84805 10.0757C6.52182 10.4408 6.20318 10.8129 5.88461 11.1848C5.78336 11.3031 5.68212 11.4213 5.58065 11.5392L5.54465 11.5811C4.2351 13.1042 2.92555 14.6273 1.616 16.1508C1.41716 16.3821 1.21883 16.6138 1.00967 16.8582C0.915475 16.9683 0.819078 17.0809 0.719446 17.1972Z" fill="white"/>
</svg>
