<svg width="24" height="16" viewBox="0 0 24 16" fill="none" xmlns="http://www.w3.org/2000/svg">
<path fill-rule="evenodd" clip-rule="evenodd" d="M18.7288 15.7638H11.8191C11.0868 15.7638 10.3546 15.7648 9.62251 15.7658C8.03785 15.7679 6.45332 15.77 4.86841 15.7622C2.78321 15.7517 1.15112 14.4754 0.690526 12.5052C0.617098 12.193 0.591215 11.8655 0.590381 11.5452C0.589108 11.1841 0.587661 10.823 0.586213 10.4619C0.578172 8.45566 0.570129 6.44951 0.592051 4.44394C0.613745 2.41549 1.85535 0.850467 3.78367 0.380557C4.18085 0.28431 4.60473 0.253591 5.01693 0.253591C6.57975 0.250508 8.14267 0.25335 9.70559 0.256193C12.6521 0.261552 15.5986 0.266912 18.5444 0.232561C20.9125 0.205062 22.9793 1.90109 22.9993 4.28542C23.0219 6.89379 23.0402 9.50458 22.9534 12.1105C22.8892 14.0597 21.0009 15.7129 18.9783 15.759C18.8957 15.7614 18.8123 15.7638 18.7288 15.7638ZM8.85271 4.66527V11.3467C10.8419 10.2274 12.7803 9.1363 14.777 8.01289C12.7669 6.87734 10.8353 5.78545 8.85271 4.66527Z" fill="white"/>
</svg>
