<svg width="184" height="185" viewBox="0 0 184 185" fill="none" xmlns="http://www.w3.org/2000/svg">
<g clip-path="url(#clip0_263_25)">
<path d="M71 114.03V71.0833H113.947V114.03H71Z" stroke="#32D996" stroke-width="4"/>
<path d="M79.5234 79.5799V105.266H105.21V79.5799H79.5234Z" fill="#32D996" stroke="#32D996" stroke-width="2"/>
<g filter="url(#filter0_f_263_25)">
<path d="M79.5234 79.5799V105.266H105.21V79.5799H79.5234Z" fill="#9AFFD6"/>
<path d="M79.5234 79.5799V105.266H105.21V79.5799H79.5234Z" fill="#9AFFD6" stroke="#32D996" stroke-width="2"/>
</g>
<g filter="url(#filter1_f_263_25)">
<path d="M79.5234 79.5799V105.266H105.21V79.5799H79.5234Z" fill="#32D996"/>
<path d="M79.5234 79.5799V105.266H105.21V79.5799H79.5234Z" stroke="#32D996" stroke-width="2"/>
</g>
<g filter="url(#filter2_f_263_25)">
<path d="M79.5234 79.5799V105.266H105.21V79.5799H79.5234Z" fill="#B4FFE1"/>
<path d="M79.5234 79.5799V105.266H105.21V79.5799H79.5234Z" fill="#B4FFE1" stroke="#CCFFEA" stroke-width="2"/>
</g>
<path d="M93.065 80.0566C95.8983 80.3284 98.353 82.1677 99.3739 84.8779C100.028 86.6139 99.8503 88.339 99.8643 90.1633C101.064 90.1708 101.891 91.1322 101.878 92.3334C101.711 95.8061 102.093 99.4839 101.878 102.933C101.805 104.095 101.238 104.873 100.08 105.054L84.899 105.057C83.7469 104.974 83.0253 104.087 83.0073 102.933C83.1626 99.4506 82.8094 95.7952 83.0073 92.3334C83.0839 90.9943 83.8096 90.1565 85.1642 90.1633C85.2195 88.7372 85.0216 87.2641 85.3308 85.8659C86.0218 82.7459 88.7738 80.2985 91.9162 80.0566H93.065ZM96.6566 90.1633C96.6012 88.3839 96.9564 86.6594 95.8816 85.1191C94.2138 82.7296 90.6755 82.7438 89.0716 85.1878C88.8124 85.5825 88.3726 86.5548 88.3726 87.0141V90.1633H96.6566Z" fill="#040E13"/>
</g>
<defs>
<filter id="filter0_f_263_25" x="37.5234" y="37.5798" width="109.686" height="109.686" filterUnits="userSpaceOnUse" color-interpolation-filters="sRGB">
<feFlood flood-opacity="0" result="BackgroundImageFix"/>
<feBlend mode="normal" in="SourceGraphic" in2="BackgroundImageFix" result="shape"/>
<feGaussianBlur stdDeviation="20.5" result="effect1_foregroundBlur_263_25"/>
</filter>
<filter id="filter1_f_263_25" x="0.723434" y="0.779831" width="183.286" height="183.286" filterUnits="userSpaceOnUse" color-interpolation-filters="sRGB">
<feFlood flood-opacity="0" result="BackgroundImageFix"/>
<feBlend mode="normal" in="SourceGraphic" in2="BackgroundImageFix" result="shape"/>
<feGaussianBlur stdDeviation="38.9" result="effect1_foregroundBlur_263_25"/>
</filter>
<filter id="filter2_f_263_25" x="62.1234" y="62.1798" width="60.486" height="60.4862" filterUnits="userSpaceOnUse" color-interpolation-filters="sRGB">
<feFlood flood-opacity="0" result="BackgroundImageFix"/>
<feBlend mode="normal" in="SourceGraphic" in2="BackgroundImageFix" result="shape"/>
<feGaussianBlur stdDeviation="8.2" result="effect1_foregroundBlur_263_25"/>
</filter>
<clipPath id="clip0_263_25">
<rect width="184" height="185" fill="white"/>
</clipPath>
</defs>
</svg>
